<svg xmlns="http://www.w3.org/2000/svg" xmlns:xlink="http://www.w3.org/1999/xlink" width="500" zoomAndPan="magnify" viewBox="0 0 375 374.999991" height="500" preserveAspectRatio="xMidYMid meet" version="1.0"><defs><g/><clipPath id="95d45f80fc"><path d="M 90 114 L 285.367188 114 L 285.367188 260.84375 L 90 260.84375 Z M 90 114 " clip-rule="nonzero"/></clipPath></defs><path fill="#000000" d="M 187.5 375 C 84.144531 375 0 290.855469 0 187.5 C 0 84.144531 84.144531 0 187.5 0 C 290.855469 0 375 84.144531 375 187.5 C 375 290.855469 290.855469 375 187.5 375 Z M 187.5 2.769531 C 85.621094 2.769531 2.769531 85.621094 2.769531 187.5 C 2.769531 289.378906 85.621094 372.230469 187.5 372.230469 C 289.378906 372.230469 372.230469 289.378906 372.230469 187.5 C 372.230469 85.621094 289.378906 2.769531 187.5 2.769531 Z M 187.5 2.769531 " fill-opacity="1" fill-rule="nonzero"/><g clip-path="url(#95d45f80fc)"><path fill="#231f20" d="M 282.628906 254.550781 C 267.816406 258.667969 252.425781 259.574219 237.121094 259.5625 C 221.292969 259.554688 205.445312 258.757812 189.636719 258.109375 C 173.546875 257.453125 157.507812 256.328125 141.441406 255.402344 C 125.304688 254.472656 109.226562 257.371094 93.085938 256.816406 C 92.457031 251.949219 91.171875 247.183594 91.28125 242.242188 C 99.929688 240.304688 108.933594 242.277344 117.679688 242.277344 L 146.488281 242.277344 C 166.339844 242.277344 186.191406 241.996094 206.042969 241.910156 C 223.621094 241.839844 241.257812 242.226562 258.808594 243.15625 C 264.085938 243.433594 269.363281 243.804688 274.648438 243.621094 C 277.28125 243.527344 281.648438 243.523438 283.722656 241.382812 C 282.800781 245.398438 281.394531 250.582031 282.628906 254.550781 Z M 117.109375 215.699219 C 117.160156 215.710938 117.191406 215.746094 117.25 215.746094 C 142.007812 215.742188 166.761719 215.390625 191.519531 214.941406 C 203.890625 214.71875 216.257812 214.472656 228.636719 214.234375 C 234.832031 214.113281 241.027344 214 247.226562 213.886719 C 250.746094 213.828125 255.378906 214.640625 258.769531 213.105469 C 260.652344 215.265625 262.828125 217.140625 264.949219 219.070312 C 267.375 221.28125 269.46875 223.761719 271.566406 226.277344 C 275.425781 230.90625 279.121094 235.699219 283.261719 240.089844 L 283.164062 240.191406 C 282.15625 241.742188 279.460938 241.9375 277.816406 242.144531 C 275.15625 242.472656 272.449219 242.457031 269.777344 242.414062 C 265.269531 242.351562 260.777344 241.90625 256.273438 241.808594 C 237.441406 241.398438 218.675781 240.589844 199.832031 240.699219 C 180.851562 240.808594 161.871094 241.039062 142.886719 241.039062 C 133.746094 241.039062 124.601562 241.113281 115.460938 241.027344 C 107.855469 240.953125 100.234375 239.464844 92.6875 240.710938 C 100.0625 232.03125 106.683594 220.773438 117.109375 215.699219 Z M 113.574219 176.210938 C 113.039062 161.230469 111.367188 133.871094 111.324219 118.863281 L 111.308594 118.785156 C 120.476562 115.496094 131.203125 118.316406 140.628906 118.710938 C 152.863281 119.222656 165.128906 116.335938 177.328125 115.71875 C 190.734375 115.039062 204.34375 116.351562 217.730469 116.976562 C 230.90625 117.59375 244.007812 117.566406 257.191406 117.566406 C 256.152344 121.394531 257.132812 126.28125 257.476562 130.117188 C 258.132812 137.46875 258.394531 157.222656 258.417969 164.601562 C 258.441406 172.628906 258.234375 180.648438 258.097656 188.675781 C 258.035156 192.496094 258.0625 196.246094 258.359375 200.050781 C 258.664062 203.960938 258.855469 207.898438 258.140625 211.777344 C 258.097656 211.855469 258.078125 211.945312 258.074219 212.039062 C 256.152344 212.8125 253.9375 212.632812 251.886719 212.589844 C 249.09375 212.535156 246.292969 212.664062 243.503906 212.710938 C 237.308594 212.824219 231.113281 212.941406 224.917969 213.0625 C 212.957031 213.292969 201.003906 213.527344 189.046875 213.746094 C 165.398438 214.167969 141.746094 214.488281 118.09375 214.5 C 114.117188 202.230469 114.027344 188.980469 113.574219 176.210938 Z M 285.144531 240.28125 C 280.574219 235.621094 276.601562 230.414062 272.449219 225.398438 C 270.355469 222.871094 268.234375 220.425781 265.832031 218.191406 C 263.808594 216.3125 261.707031 214.523438 259.867188 212.46875 L 259.875 212.457031 C 259.382812 212.136719 259.144531 211.496094 259.488281 211.03125 C 260.386719 204.824219 259.246094 198.53125 259.296875 192.289062 C 259.363281 184.261719 259.652344 176.238281 259.667969 168.210938 C 259.679688 160.257812 259.617188 139.867188 258.890625 131.941406 C 258.675781 129.53125 258.457031 127.128906 258.3125 124.714844 C 258.175781 122.449219 257.792969 119.699219 258.488281 117.492188 C 258.605469 117.109375 258.371094 116.839844 258.074219 116.757812 C 258.007812 116.519531 257.820312 116.320312 257.503906 116.320312 C 244.21875 116.320312 231.011719 116.347656 217.730469 115.734375 C 203.9375 115.097656 189.972656 113.835938 176.164062 114.535156 C 164.035156 115.148438 151.953125 117.941406 139.78125 117.433594 C 130.332031 117.035156 119.785156 114.25 110.621094 117.714844 C 110.4375 118.273438 110.328125 118.914062 110.089844 119.464844 C 110.175781 134.265625 111.792969 161.425781 112.328125 176.210938 C 112.789062 188.976562 112.882812 202.238281 116.796875 214.523438 C 116.71875 214.53125 116.636719 214.546875 116.546875 214.589844 C 105.453125 219.945312 98.660156 232.132812 90.738281 241.066406 C 90.667969 241.0625 90.589844 241.070312 90.519531 241.085938 C 90.4375 241.175781 90.363281 241.265625 90.277344 241.347656 C 90.199219 241.421875 90.128906 241.511719 90.058594 241.601562 L 90.039062 241.65625 C 89.785156 247.152344 91.378906 252.394531 91.96875 257.808594 L 91.972656 257.828125 C 92.457031 257.734375 92.9375 257.878906 93.390625 258.0625 L 93.398438 258.066406 C 109.4375 258.578125 125.394531 255.90625 141.441406 256.644531 C 157.910156 257.402344 174.351562 258.726562 190.835938 259.402344 C 206.632812 260.050781 222.457031 260.796875 238.269531 260.804688 C 253.335938 260.816406 268.53125 259.785156 283.097656 255.714844 C 283.339844 255.648438 283.460938 255.480469 283.507812 255.296875 C 283.8125 255.21875 284.050781 254.949219 283.917969 254.566406 C 282.53125 250.671875 284.070312 245.460938 284.972656 241.484375 L 285.066406 241.4375 L 285.089844 241.324219 C 285.058594 241.25 285.035156 241.175781 285.035156 241.089844 C 285.027344 240.816406 285.074219 240.546875 285.144531 240.28125 " fill-opacity="1" fill-rule="nonzero"/></g><path fill="#231f20" d="M 120.964844 126.390625 C 142.429688 124.796875 163.953125 124.554688 185.460938 124.527344 C 207.054688 124.5 228.601562 124.171875 250.183594 123.71875 L 250.183594 123.714844 C 252.1875 127.21875 251.964844 132.675781 252.203125 136.5 C 252.664062 143.917969 252.667969 163.800781 252.5625 171.230469 C 252.464844 178.445312 252.203125 185.667969 251.699219 192.871094 C 251.621094 194.003906 251.210938 202.660156 250.511719 203.652344 C 250.496094 203.839844 250.433594 204.019531 250.324219 204.203125 C 250.238281 204.34375 250.121094 204.425781 249.992188 204.472656 L 250 204.515625 C 240.59375 206.816406 230.691406 206.886719 221.066406 207.316406 C 210.015625 207.808594 198.953125 208.023438 187.894531 208.121094 C 167.035156 208.308594 146.183594 207.988281 125.324219 207.972656 C 129.980469 184.878906 121.257812 149.476562 120.964844 126.390625 Z M 124.140625 207.527344 C 124.15625 207.582031 124.179688 207.636719 124.183594 207.695312 C 124.242188 208.214844 124.328125 208.738281 124.53125 209.210938 C 146.046875 209.21875 167.5625 209.550781 189.082031 209.355469 C 200.136719 209.257812 211.195312 209 222.242188 208.507812 C 231.773438 208.082031 241.527344 207.953125 250.820312 205.597656 C 250.894531 205.507812 250.972656 205.417969 251.03125 205.3125 C 251.167969 205.070312 251.277344 204.828125 251.398438 204.582031 C 251.472656 204.433594 251.554688 204.28125 251.644531 204.140625 L 251.605469 204.140625 C 252.617188 202.152344 252.585938 197.191406 252.679688 196.175781 C 253.351562 188.753906 253.609375 181.289062 253.765625 173.84375 C 253.9375 165.722656 253.929688 145.152344 253.476562 137.039062 C 253.242188 132.769531 253.488281 126.574219 251.101562 122.78125 C 250.933594 122.511719 250.664062 122.453125 250.421875 122.515625 C 250.351562 122.488281 250.273438 122.472656 250.183594 122.472656 C 229.011719 122.917969 207.875 123.269531 186.691406 123.28125 C 164.6875 123.296875 142.667969 123.523438 120.71875 125.164062 L 120.683594 125.175781 C 120.46875 125.40625 120.25 125.640625 120.125 125.933594 C 119.953125 126.335938 119.894531 126.773438 119.734375 127.179688 C 120.210938 149.84375 128.660156 184.875 124.140625 207.527344 " fill-opacity="1" fill-rule="nonzero"/><path fill="#231f20" d="M 187.738281 236.992188 C 180.28125 236.558594 172.847656 237.808594 165.386719 237.789062 C 165.527344 236.222656 166.453125 233.386719 167.425781 232.242188 C 168.230469 231.296875 173.394531 231.96875 174.621094 231.953125 C 178.976562 231.910156 183.332031 231.84375 187.6875 231.605469 C 190.878906 231.425781 194.0625 230.972656 197.261719 230.917969 C 201.132812 230.851562 203.335938 232.78125 204.628906 236.164062 C 199.621094 238.480469 193.050781 237.300781 187.738281 236.992188 Z M 200.519531 230.058594 C 196.976562 228.902344 192.484375 230.019531 188.886719 230.28125 C 182.550781 230.75 176.1875 230.679688 169.84375 230.765625 C 168.035156 230.792969 167.015625 230.46875 165.964844 232.058594 C 164.9375 233.601562 164.207031 236.074219 164.121094 237.972656 C 163.804688 238.308594 163.953125 239.027344 164.558594 239.039062 C 172.558594 239.164062 180.503906 237.816406 188.5 238.28125 C 193.90625 238.597656 200.261719 239.605469 205.34375 237.199219 C 205.757812 237.277344 206.242188 236.976562 206.074219 236.460938 C 205.089844 233.492188 203.613281 231.070312 200.519531 230.058594 " fill-opacity="1" fill-rule="nonzero"/><path fill="#231f20" d="M 117.554688 225.550781 C 117.617188 225.535156 117.675781 225.523438 117.734375 225.484375 C 118.460938 225.027344 120.3125 225.304688 121.140625 225.285156 C 121.878906 225.265625 122.613281 225.238281 123.34375 225.199219 C 123.0625 225.921875 122.78125 226.640625 122.496094 227.359375 C 120.386719 227.425781 118.277344 227.515625 116.164062 227.675781 C 116.695312 227.011719 117.136719 226.289062 117.554688 225.550781 Z M 119.46875 222.054688 C 121.230469 221.992188 122.984375 221.925781 124.742188 221.859375 C 124.421875 222.550781 124.136719 223.253906 123.851562 223.957031 C 123.5 223.96875 123.15625 224 122.808594 224.007812 C 121.667969 224.039062 119.84375 223.777344 118.417969 223.984375 C 118.761719 223.335938 119.105469 222.6875 119.46875 222.054688 Z M 121.257812 219.503906 C 122.867188 219.402344 124.480469 219.34375 126.09375 219.269531 C 125.832031 219.703125 125.601562 220.152344 125.371094 220.597656 C 123.671875 220.65625 121.96875 220.722656 120.269531 220.78125 C 120.574219 220.339844 120.894531 219.90625 121.257812 219.503906 Z M 131.875 221.636719 C 131.679688 222.253906 131.5 222.878906 131.316406 223.5 C 129.28125 223.609375 127.257812 223.765625 125.21875 223.890625 C 125.515625 223.1875 125.8125 222.492188 126.140625 221.808594 C 128.050781 221.738281 129.964844 221.683594 131.875 221.636719 Z M 127.597656 219.210938 L 127.601562 219.195312 C 129.351562 219.121094 131.105469 219.078125 132.855469 219.03125 C 132.648438 219.476562 132.464844 219.933594 132.296875 220.390625 C 130.46875 220.433594 128.636719 220.484375 126.804688 220.546875 C 127.058594 220.097656 127.304688 219.644531 127.597656 219.210938 Z M 140.222656 221.558594 C 140.128906 222.226562 139.988281 222.890625 139.832031 223.554688 C 138.402344 223.507812 136.960938 223.464844 135.527344 223.421875 C 134.539062 223.394531 133.5625 223.410156 132.585938 223.441406 C 132.765625 222.828125 132.949219 222.210938 133.15625 221.605469 C 135.507812 221.554688 137.863281 221.539062 140.222656 221.558594 Z M 134.234375 219.03125 L 134.246094 218.988281 C 136.308594 218.9375 138.371094 218.90625 140.433594 218.882812 C 140.433594 219.363281 140.40625 219.847656 140.367188 220.328125 C 138.117188 220.308594 135.863281 220.320312 133.621094 220.363281 C 133.804688 219.910156 134.003906 219.464844 134.234375 219.03125 Z M 146.519531 225.078125 C 146.34375 226.003906 146.199219 226.933594 146.070312 227.839844 C 144.050781 227.738281 142.03125 227.628906 140.011719 227.546875 C 140.296875 226.664062 140.5625 225.757812 140.804688 224.84375 C 142.710938 224.914062 144.617188 224.980469 146.519531 225.078125 Z M 141.480469 221.570312 C 143.429688 221.601562 145.382812 221.671875 147.339844 221.78125 C 147.121094 222.453125 146.945312 223.144531 146.785156 223.839844 C 144.890625 223.742188 142.996094 223.667969 141.101562 223.601562 C 141.25 222.925781 141.386719 222.25 141.480469 221.570312 Z M 141.679688 218.871094 C 143.988281 218.851562 146.296875 218.871094 148.605469 218.878906 C 148.296875 219.414062 148.03125 219.980469 147.792969 220.558594 C 145.726562 220.445312 143.671875 220.375 141.617188 220.34375 C 141.65625 219.851562 141.683594 219.359375 141.679688 218.871094 Z M 156.148438 222.042969 C 155.914062 222.847656 155.6875 223.652344 155.472656 224.464844 C 154.042969 224.339844 152.628906 224.199219 151.246094 224.101562 C 150.175781 224.027344 149.105469 223.96875 148.039062 223.910156 C 148.207031 223.207031 148.390625 222.511719 148.625 221.839844 C 151.144531 221.992188 153.644531 222.054688 156.148438 222.042969 Z M 149.847656 219.210938 C 149.917969 219.097656 149.9375 218.984375 149.933594 218.878906 C 152.285156 218.890625 154.640625 218.917969 156.996094 218.945312 C 156.847656 219.554688 156.675781 220.160156 156.503906 220.765625 C 154.046875 220.792969 151.589844 220.746094 149.113281 220.613281 C 149.335938 220.128906 149.570312 219.65625 149.847656 219.210938 Z M 163.339844 221.804688 C 163.882812 221.769531 164.421875 221.773438 164.964844 221.753906 C 164.84375 222.691406 164.75 223.632812 164.65625 224.570312 C 162.078125 224.898438 159.382812 224.78125 156.707031 224.566406 C 156.941406 223.714844 157.191406 222.867188 157.4375 222.015625 C 159.398438 221.984375 161.363281 221.921875 163.339844 221.804688 Z M 158.277344 218.957031 C 160.65625 218.988281 163.039062 219.023438 165.421875 219.0625 C 165.316406 219.53125 165.25 220.003906 165.171875 220.476562 C 164.949219 220.484375 164.726562 220.480469 164.507812 220.492188 C 162.257812 220.609375 160.027344 220.691406 157.800781 220.734375 C 157.964844 220.144531 158.132812 219.554688 158.277344 218.957031 Z M 165.761719 225.789062 C 168.210938 226 170.632812 225.621094 173.09375 225.472656 C 173.585938 225.445312 174.078125 225.441406 174.570312 225.425781 C 174.609375 226.464844 174.652344 227.503906 174.828125 228.53125 C 171.695312 228.554688 168.558594 228.5625 165.425781 228.523438 C 165.566406 227.617188 165.664062 226.703125 165.761719 225.789062 Z M 166.214844 221.71875 C 168.890625 221.675781 171.5625 221.75 174.238281 221.828125 C 174.335938 222.386719 174.429688 222.925781 174.464844 223.371094 C 174.492188 223.667969 174.5 223.96875 174.519531 224.269531 C 171.644531 224.433594 168.714844 224.855469 165.890625 224.5625 C 165.988281 223.613281 166.082031 222.664062 166.214844 221.71875 Z M 166.691406 219.082031 C 169.148438 219.121094 171.601562 219.15625 174.058594 219.191406 C 174 219.609375 174.023438 220.085938 174.070312 220.5625 C 171.523438 220.476562 168.976562 220.402344 166.433594 220.449219 C 166.515625 219.992188 166.585938 219.535156 166.691406 219.082031 Z M 175.335938 219.210938 C 177.175781 219.234375 179.015625 219.242188 180.859375 219.261719 C 180.980469 219.746094 181.070312 220.234375 181.164062 220.722656 C 180.390625 220.703125 179.621094 220.660156 178.859375 220.574219 C 178.707031 220.558594 178.59375 220.597656 178.5 220.664062 C 177.4375 220.65625 176.371094 220.636719 175.308594 220.605469 C 175.261719 220.09375 175.25 219.601562 175.335938 219.210938 Z M 181.710938 224.25 C 180.042969 224.230469 178.371094 224.222656 176.703125 224.203125 C 176.386719 224.199219 176.070312 224.210938 175.757812 224.21875 C 175.746094 223.933594 175.734375 223.652344 175.710938 223.371094 C 175.679688 222.96875 175.578125 222.433594 175.480469 221.859375 C 176.671875 221.890625 177.867188 221.917969 179.054688 221.917969 C 179.167969 221.917969 179.257812 221.886719 179.339844 221.847656 C 180.015625 221.90625 180.699219 221.9375 181.394531 221.945312 C 181.515625 222.710938 181.613281 223.480469 181.710938 224.25 Z M 182.304688 228.40625 C 180.230469 228.445312 178.148438 228.503906 176.082031 228.523438 C 175.871094 227.492188 175.832031 226.4375 175.804688 225.386719 C 177.824219 225.359375 179.851562 225.410156 181.867188 225.472656 C 181.996094 226.453125 182.125 227.433594 182.304688 228.40625 Z M 186.867188 219.320312 C 186.96875 219.804688 187.113281 220.296875 187.253906 220.792969 C 185.652344 220.714844 184.03125 220.738281 182.417969 220.730469 C 182.328125 220.242188 182.246094 219.757812 182.128906 219.273438 C 183.710938 219.289062 185.289062 219.308594 186.867188 219.320312 Z M 187.605469 222.007812 C 187.863281 222.816406 188.167969 223.621094 188.484375 224.421875 C 188.070312 224.40625 187.652344 224.390625 187.242188 224.371094 C 185.8125 224.316406 184.378906 224.292969 182.949219 224.273438 C 182.851562 223.5 182.75 222.722656 182.632812 221.949219 C 184.042969 221.933594 185.460938 221.890625 186.84375 221.964844 C 187.097656 221.980469 187.351562 221.992188 187.605469 222.007812 Z M 188.699219 219.339844 C 190.9375 219.34375 193.171875 219.367188 195.40625 219.386719 L 195.414062 219.414062 C 195.679688 219.910156 195.886719 220.457031 196.074219 221.011719 C 193.570312 221.050781 191.066406 221.011719 188.5625 220.84375 C 188.417969 220.335938 188.265625 219.828125 188.148438 219.332031 C 188.335938 219.332031 188.519531 219.335938 188.699219 219.339844 Z M 196.480469 222.265625 C 196.652344 222.835938 196.824219 223.402344 197.023438 223.929688 C 197.128906 224.195312 197.242188 224.457031 197.355469 224.722656 C 194.847656 224.695312 192.34375 224.585938 189.851562 224.476562 C 189.527344 223.6875 189.222656 222.886719 188.949219 222.082031 C 191.324219 222.203125 193.6875 222.304688 196.082031 222.273438 C 196.214844 222.269531 196.347656 222.269531 196.480469 222.265625 Z M 204.628906 219.539062 C 204.808594 219.964844 204.96875 220.402344 205.136719 220.832031 C 202.539062 220.878906 199.9375 220.9375 197.34375 221.003906 C 197.167969 220.460938 196.988281 219.917969 196.765625 219.398438 C 199.386719 219.429688 202.007812 219.492188 204.628906 219.539062 Z M 206.203125 223.757812 C 206.265625 223.945312 206.335938 224.121094 206.40625 224.304688 C 203.871094 224.605469 201.3125 224.71875 198.742188 224.722656 C 198.476562 224.152344 198.21875 223.582031 198 223 C 197.90625 222.753906 197.824219 222.5 197.738281 222.242188 C 200.363281 222.203125 202.988281 222.148438 205.609375 222.089844 C 205.816406 222.644531 206.015625 223.199219 206.203125 223.757812 Z M 214.15625 219.761719 C 214.257812 220.085938 214.363281 220.40625 214.46875 220.730469 C 211.796875 220.738281 209.125 220.757812 206.460938 220.804688 C 206.300781 220.386719 206.140625 219.972656 205.972656 219.5625 C 208.699219 219.613281 211.429688 219.695312 214.15625 219.761719 Z M 215.492188 224.019531 C 212.867188 223.878906 210.160156 223.796875 207.671875 224.152344 C 207.578125 223.914062 207.484375 223.671875 207.402344 223.429688 C 207.257812 222.96875 207.089844 222.519531 206.929688 222.066406 C 209.574219 222.015625 212.21875 221.976562 214.863281 221.96875 C 215.085938 222.648438 215.285156 223.335938 215.492188 224.019531 Z M 224.414062 220.011719 C 224.414062 220.386719 224.429688 220.757812 224.441406 221.132812 C 221.535156 220.964844 218.636719 220.773438 215.71875 220.644531 C 215.632812 220.359375 215.546875 220.074219 215.464844 219.792969 C 218.445312 219.867188 221.433594 219.921875 224.414062 220.011719 Z M 224.585938 224.394531 C 222.667969 224.335938 220.753906 224.269531 218.839844 224.191406 C 218.175781 224.160156 217.492188 224.125 216.804688 224.085938 C 216.566406 223.363281 216.332031 222.640625 216.105469 221.90625 C 218.902344 222.039062 221.6875 222.222656 224.46875 222.386719 C 224.496094 223.054688 224.539062 223.726562 224.585938 224.394531 Z M 224.941406 228.066406 C 222.628906 227.992188 220.3125 227.957031 218 227.925781 C 217.960938 227.046875 217.539062 226.167969 217.21875 225.335938 C 218.144531 225.386719 219.066406 225.441406 219.976562 225.480469 C 221.535156 225.542969 223.09375 225.578125 224.648438 225.621094 C 224.683594 226.316406 224.703125 227.289062 224.941406 228.066406 Z M 232.785156 220.3125 C 232.722656 220.699219 232.699219 221.082031 232.703125 221.460938 C 232.042969 221.445312 231.386719 221.429688 230.726562 221.414062 C 229.039062 221.375 227.359375 221.292969 225.683594 221.203125 C 225.675781 220.820312 225.667969 220.433594 225.664062 220.054688 C 228.039062 220.128906 230.414062 220.222656 232.785156 220.3125 Z M 233.265625 224.621094 C 232.617188 224.59375 231.972656 224.570312 231.328125 224.5625 C 229.484375 224.527344 227.644531 224.480469 225.800781 224.429688 C 225.800781 224.3125 225.800781 224.199219 225.796875 224.113281 C 225.757812 223.5625 225.738281 223.011719 225.722656 222.457031 C 227.382812 222.546875 229.046875 222.625 230.726562 222.65625 C 231.421875 222.671875 232.117188 222.6875 232.816406 222.703125 C 232.914062 223.347656 233.082031 223.984375 233.265625 224.621094 Z M 233.613281 225.859375 C 233.859375 226.699219 234.085938 227.542969 234.199219 228.402344 C 231.59375 228.300781 228.980469 228.203125 226.359375 228.117188 C 225.933594 227.753906 225.839844 226.648438 225.816406 225.65625 C 228.402344 225.71875 230.988281 225.777344 233.574219 225.855469 Z M 234.035156 220.351562 C 236.246094 220.433594 238.453125 220.519531 240.667969 220.558594 C 240.816406 220.945312 240.9375 221.335938 241.039062 221.730469 C 238.667969 221.621094 236.292969 221.546875 233.917969 221.492188 C 233.921875 221.109375 233.953125 220.730469 234.035156 220.351562 Z M 241.59375 225.167969 C 239.210938 225 236.832031 224.804688 234.484375 224.675781 C 234.292969 224.027344 234.121094 223.378906 234.019531 222.730469 C 236.453125 222.789062 238.886719 222.863281 241.320312 222.980469 C 241.449219 223.703125 241.527344 224.433594 241.59375 225.167969 Z M 241.894531 228.667969 C 239.75 228.609375 237.597656 228.523438 235.445312 228.445312 C 235.335938 227.601562 235.097656 226.761719 234.84375 225.914062 C 237.109375 226.015625 239.394531 226.183594 241.695312 226.34375 C 241.757812 227.121094 241.816406 227.898438 241.894531 228.667969 Z M 249.011719 220.792969 C 249.035156 221.203125 249.085938 221.609375 249.15625 222.011719 C 247.988281 222.046875 246.820312 222.042969 245.648438 222.035156 C 245.59375 222.015625 245.542969 221.992188 245.472656 221.988281 C 244.429688 221.910156 243.382812 221.847656 242.339844 221.792969 C 242.238281 221.390625 242.136719 220.984375 241.996094 220.589844 C 244.242188 220.621094 246.660156 220.855469 249.011719 220.792969 Z M 250.070312 225.464844 C 247.671875 225.511719 245.253906 225.410156 242.832031 225.253906 C 242.769531 224.515625 242.699219 223.777344 242.585938 223.050781 C 243.4375 223.097656 244.289062 223.148438 245.140625 223.210938 C 245.222656 223.253906 245.3125 223.28125 245.425781 223.28125 C 246.753906 223.285156 248.082031 223.277344 249.410156 223.230469 C 249.59375 223.980469 249.832031 224.722656 250.070312 225.464844 Z M 253.191406 220.210938 C 253.402344 220.152344 253.886719 219.714844 254.042969 219.640625 C 254.230469 220.394531 254.5 221.113281 254.808594 221.8125 C 253.644531 221.675781 252.484375 221.78125 251.308594 221.894531 C 251.003906 221.921875 250.703125 221.9375 250.402344 221.957031 C 250.328125 221.546875 250.28125 221.132812 250.257812 220.71875 C 251.261719 220.636719 252.246094 220.484375 253.191406 220.210938 Z M 254.988281 223.105469 C 255.117188 223.207031 255.289062 223.257812 255.496094 223.207031 C 255.808594 223.773438 256.144531 224.324219 256.492188 224.871094 C 254.800781 225.171875 253.082031 225.34375 251.355469 225.421875 C 251.109375 224.679688 250.863281 223.9375 250.671875 223.1875 L 250.746094 223.183594 C 252.167969 223.085938 253.578125 222.851562 254.988281 223.105469 Z M 258.871094 228.570312 C 256.6875 228.6875 254.503906 228.742188 252.328125 228.773438 C 252.179688 228.050781 251.964844 227.328125 251.738281 226.613281 C 253.582031 226.527344 255.414062 226.34375 257.214844 226 C 257.773438 226.851562 258.347656 227.703125 258.871094 228.570312 Z M 243.144531 228.703125 C 243.054688 227.953125 242.992188 227.191406 242.933594 226.425781 C 245.441406 226.589844 247.949219 226.695312 250.445312 226.644531 C 250.675781 227.359375 250.890625 228.074219 251.058594 228.792969 C 248.414062 228.8125 245.777344 228.765625 243.144531 228.703125 Z M 209.011719 227.902344 L 209.007812 227.808594 C 208.796875 226.964844 208.472656 226.164062 208.144531 225.363281 C 209.773438 225.214844 211.53125 225.378906 213.136719 225.289062 C 214.046875 225.234375 214.964844 225.25 215.890625 225.28125 C 216.171875 226.128906 216.691406 227.027344 216.746094 227.90625 C 214.167969 227.886719 211.59375 227.882812 209.011719 227.902344 Z M 200.023438 228.015625 L 200.019531 228 C 199.84375 227.300781 199.574219 226.621094 199.285156 225.949219 C 201.824219 225.9375 204.351562 225.820312 206.867188 225.496094 C 207.1875 226.292969 207.507812 227.085938 207.734375 227.90625 C 205.164062 227.933594 202.59375 227.964844 200.023438 228.015625 Z M 191.582031 228.207031 C 191.542969 228.109375 191.496094 228.035156 191.429688 227.980469 C 191.066406 227.257812 190.714844 226.5 190.371094 225.722656 C 192.882812 225.820312 195.394531 225.925781 197.90625 225.945312 C 198.21875 226.636719 198.515625 227.328125 198.726562 228.042969 C 196.347656 228.09375 193.964844 228.144531 191.582031 228.207031 Z M 188.257812 228.292969 C 186.6875 228.332031 185.125 228.347656 183.554688 228.382812 C 183.367188 227.425781 183.234375 226.464844 183.109375 225.5 C 183.738281 225.519531 184.375 225.539062 185.003906 225.550781 C 186.328125 225.570312 187.660156 225.617188 188.992188 225.667969 C 189.367188 226.550781 189.765625 227.417969 190.171875 228.242188 C 189.535156 228.257812 188.894531 228.273438 188.257812 228.292969 Z M 164.175781 228.519531 C 161.417969 228.476562 158.660156 228.40625 155.894531 228.296875 C 156.019531 227.4375 156.203125 226.585938 156.410156 225.742188 C 159.109375 225.949219 161.871094 226.101562 164.523438 225.820312 C 164.425781 226.722656 164.324219 227.621094 164.175781 228.519531 Z M 154.660156 228.246094 C 153.765625 228.207031 152.871094 228.175781 151.976562 228.125 C 150.417969 228.046875 148.863281 227.976562 147.308594 227.898438 C 147.4375 227 147.585938 226.078125 147.765625 225.15625 C 149.730469 225.261719 151.695312 225.375 153.65625 225.523438 C 154.160156 225.558594 154.667969 225.601562 155.175781 225.644531 C 154.972656 226.503906 154.789062 227.367188 154.660156 228.246094 Z M 138.71875 227.496094 C 136.25 227.402344 133.789062 227.324219 131.320312 227.289062 C 131.667969 226.449219 131.941406 225.582031 132.207031 224.710938 C 134.511719 224.675781 136.820312 224.703125 139.164062 224.777344 C 139.285156 224.78125 139.40625 224.789062 139.527344 224.792969 C 139.28125 225.707031 139.007812 226.613281 138.71875 227.496094 Z M 130.105469 226.996094 C 130.070312 227.09375 130.050781 227.191406 130.050781 227.28125 C 127.996094 227.261719 125.941406 227.269531 123.882812 227.316406 L 123.890625 227.300781 L 123.898438 227.164062 C 124.171875 226.480469 124.441406 225.792969 124.714844 225.109375 C 126.804688 224.914062 128.867188 224.804688 130.933594 224.75 C 130.691406 225.511719 130.429688 226.265625 130.105469 226.996094 Z M 114.9375 229.003906 L 114.941406 229.003906 C 126.878906 227.992188 138.835938 228.667969 150.773438 229.304688 C 162.894531 229.953125 174.902344 229.902344 187.035156 229.566406 C 199.277344 229.226562 211.523438 228.96875 223.765625 229.277344 C 227.414062 229.367188 231.042969 229.507812 234.664062 229.648438 C 234.820312 229.710938 235 229.722656 235.152344 229.667969 C 237.488281 229.753906 253.992188 230.105469 259.5625 229.773438 C 259.59375 229.835938 260.363281 228.492188 260.265625 228.496094 C 258.375 225.253906 255.730469 222.332031 255.0625 218.550781 C 255.015625 218.292969 254.332031 218.058594 254.144531 218.179688 C 253.523438 218.585938 251.859375 219.144531 251.789062 219.253906 C 251.210938 219.367188 243.355469 219.359375 240.695312 219.328125 C 234.941406 219.257812 229.191406 218.910156 223.441406 218.734375 C 211.476562 218.382812 199.515625 218.121094 187.542969 218.089844 C 165.359375 218.03125 143.15625 216.882812 120.992188 218.269531 C 120.832031 218.253906 120.664062 218.300781 120.515625 218.457031 C 117.816406 221.328125 117.042969 225.492188 114.054688 228.125 C 113.457031 228.660156 114.335938 229.535156 114.9375 229.003906 " fill-opacity="1" fill-rule="nonzero"/><g fill="#000000" fill-opacity="1"><g transform="translate(30.121812, 272.8944)"><g><path d="M 24.15625 13.984375 C 20.144531 16.597656 16.613281 17.289062 13.5625 16.0625 C 10.75 14.925781 8.15625 12.535156 5.78125 8.890625 L 0.40625 0.609375 L 0.953125 0.25 L 2.203125 2.1875 L 21.5625 -10.40625 L 20.3125 -12.34375 L 20.859375 -12.703125 L 26.734375 -3.65625 C 29.160156 0.0820312 30.21875 3.382812 29.90625 6.25 C 29.601562 9.113281 27.6875 11.691406 24.15625 13.984375 Z M 5.90625 7.875 L 6.625 8.984375 C 7.914062 10.960938 9.53125 11.921875 11.46875 11.859375 C 13.414062 11.804688 16.03125 10.710938 19.3125 8.578125 L 21 7.484375 C 25.382812 4.628906 27.484375 2.070312 27.296875 -0.1875 C 27.203125 -1.28125 26.675781 -2.554688 25.71875 -4.015625 L 25.265625 -4.71875 Z M 5.90625 7.875 "/></g></g></g><g fill="#000000" fill-opacity="1"><g transform="translate(50.912966, 302.703421)"><g><path d="M 18.078125 -16.40625 L 30.671875 -3.34375 L 25.9375 1.6875 L 25.5 1.25 C 26.519531 -1.09375 26.96875 -2.953125 26.84375 -4.328125 C 26.726562 -5.703125 25.953125 -7.132812 24.515625 -8.625 L 23.671875 -9.5 L 15.921875 -2.03125 L 16.75 -1.171875 C 17.507812 -0.390625 18.441406 -0.0195312 19.546875 -0.0625 C 20.648438 -0.101562 21.8125 -0.5 23.03125 -1.25 L 23.390625 -0.859375 L 15.96875 6.3125 L 15.5625 5.875 C 16.519531 4.375 17.019531 3.109375 17.0625 2.078125 C 17.113281 1.046875 16.707031 0.0820312 15.84375 -0.8125 L 15.265625 -1.40625 L 7.203125 6.375 L 8.125 7.328125 C 9.613281 8.867188 11.335938 9.734375 13.296875 9.921875 C 15.253906 10.109375 17.148438 9.707031 18.984375 8.71875 L 19.46875 9.234375 L 13.796875 14.3125 L 0.515625 0.53125 L 1.0625 0 L 2.484375 1.484375 L 18.953125 -14.390625 L 17.53125 -15.875 Z M 23.65625 -12.78125 L 30.515625 -13.8125 L 31.578125 -12.515625 C 31.953125 -12.066406 32.125 -11.640625 32.09375 -11.234375 C 32.0625 -10.835938 31.90625 -10.5 31.625 -10.21875 C 30.945312 -9.570312 30.101562 -9.472656 29.09375 -9.921875 L 23.609375 -12.34375 Z M 23.65625 -12.78125 "/></g></g></g><g fill="#000000" fill-opacity="1"><g transform="translate(73.494417, 324.950464)"><g><path d="M 15.875 3.578125 L 30.953125 -7.078125 L 28.734375 -8.65625 L 29.109375 -9.1875 L 33.453125 -6.09375 L 33.078125 -5.5625 L 31.75 -6.515625 L 10.890625 8.21875 L 8.5 6.5 L 15.28125 -18.28125 L 13.984375 -19.203125 L 14.359375 -19.734375 L 23.640625 -13.109375 L 23.265625 -12.578125 L 21.25 -14.015625 Z M 15.875 3.578125 "/></g></g></g><g fill="#000000" fill-opacity="1"><g transform="translate(101.577929, 343.779758)"><g><path d="M 11.015625 -21.796875 L 27.4375 -14.109375 L 24.8125 -7.71875 L 24.25 -7.984375 C 24.363281 -10.523438 24.117188 -12.414062 23.515625 -13.65625 C 22.921875 -14.90625 21.6875 -15.96875 19.8125 -16.84375 L 18.703125 -17.359375 L 14.140625 -7.59375 L 15.21875 -7.09375 C 16.207031 -6.625 17.210938 -6.609375 18.234375 -7.046875 C 19.253906 -7.484375 20.195312 -8.269531 21.0625 -9.40625 L 21.546875 -9.171875 L 17.171875 0.1875 L 16.625 -0.078125 C 16.988281 -1.828125 17.003906 -3.191406 16.671875 -4.171875 C 16.347656 -5.148438 15.625 -5.898438 14.5 -6.421875 L 13.75 -6.78125 L 9.015625 3.375 L 10.21875 3.9375 C 12.15625 4.84375 14.070312 5.03125 15.96875 4.5 C 17.875 3.976562 19.5 2.925781 20.84375 1.34375 L 21.484375 1.640625 L 18 8.421875 L 0.671875 0.3125 L 1 -0.375 L 2.859375 0.5 L 12.546875 -20.234375 L 10.6875 -21.109375 Z M 11.015625 -21.796875 "/></g></g></g><g fill="#000000" fill-opacity="1"><g transform="translate(130.538486, 356.333033)"><g><path d="M 7.0625 -23.375 L 19.1875 -20.09375 L 18.984375 -19.359375 L 15.421875 -20.328125 L 9.46875 1.765625 L 10.671875 2.09375 C 12.578125 2.601562 14.253906 2.425781 15.703125 1.5625 C 17.148438 0.707031 18.785156 -0.773438 20.609375 -2.890625 L 21.3125 -2.703125 L 18.546875 5.015625 L 0.703125 0.1875 L 0.90625 -0.546875 L 2.90625 0 L 8.859375 -22.09375 L 6.859375 -22.640625 Z M 7.0625 -23.375 "/></g></g></g><g fill="#000000" fill-opacity="1"><g transform="translate(160.429295, 363.690071)"><g><path d="M 18.25 -9.40625 L 18.453125 -11.96875 C 18.773438 -16.207031 18.769531 -18.898438 18.4375 -20.046875 C 18.070312 -21.367188 17.472656 -22.207031 16.640625 -22.5625 C 16.160156 -22.789062 15.570312 -22.929688 14.875 -22.984375 C 14.1875 -23.035156 13.585938 -22.988281 13.078125 -22.84375 C 12.566406 -22.695312 12.128906 -22.40625 11.765625 -21.96875 C 11.410156 -21.53125 11.113281 -21.0625 10.875 -20.5625 C 10.632812 -20.070312 10.414062 -19.367188 10.21875 -18.453125 C 9.976562 -17.117188 9.757812 -15.140625 9.5625 -12.515625 L 9.375 -10.015625 C 9.15625 -7.191406 9.109375 -5.171875 9.234375 -3.953125 C 9.359375 -2.742188 9.566406 -1.875 9.859375 -1.34375 C 10.492188 -0.15625 11.566406 0.492188 13.078125 0.609375 C 14.898438 0.753906 16.144531 0.0820312 16.8125 -1.40625 C 17.476562 -2.90625 17.957031 -5.570312 18.25 -9.40625 Z M 12.9375 1.34375 C 9.070312 1.039062 6.265625 -0.226562 4.515625 -2.46875 C 2.765625 -4.71875 2.039062 -7.828125 2.34375 -11.796875 C 2.65625 -15.773438 3.925781 -18.828125 6.15625 -20.953125 C 8.382812 -23.078125 11.375 -23.992188 15.125 -23.703125 C 18.875 -23.410156 21.617188 -22.109375 23.359375 -19.796875 C 25.109375 -17.492188 25.828125 -14.347656 25.515625 -10.359375 C 25.210938 -6.367188 24.003906 -3.34375 21.890625 -1.28125 C 19.785156 0.769531 16.800781 1.644531 12.9375 1.34375 Z M 12.9375 1.34375 "/></g></g></g><g fill="#000000" fill-opacity="1"><g transform="translate(196.497447, 365.318689)"><g><path d="M -2.25 -24.3125 L 7.953125 -25.46875 C 11.429688 -25.875 14.082031 -25.671875 15.90625 -24.859375 C 17.726562 -24.046875 18.785156 -22.347656 19.078125 -19.765625 C 19.398438 -16.898438 18.585938 -14.804688 16.640625 -13.484375 C 14.816406 -12.273438 12.160156 -11.472656 8.671875 -11.078125 L 8.390625 -11.046875 L 9.453125 -1.75 L 13.78125 -2.234375 L 13.859375 -1.578125 L 0.515625 -0.0625 L 0.4375 -0.71875 L 2.703125 -0.96875 L 0.078125 -23.90625 L -2.1875 -23.65625 Z M 6.828125 -24.6875 L 8.3125 -11.703125 L 9.046875 -11.78125 C 10.429688 -11.9375 11.332031 -12.515625 11.75 -13.515625 C 12.175781 -14.523438 12.265625 -16.09375 12.015625 -18.21875 L 11.828125 -19.875 C 11.609375 -21.84375 11.203125 -23.191406 10.609375 -23.921875 C 10.023438 -24.648438 9.078125 -24.941406 7.765625 -24.796875 Z M 6.828125 -24.6875 "/></g></g></g><g fill="#000000" fill-opacity="1"><g transform="translate(228.160813, 360.808475)"><g><path d="M -6.546875 -23.53125 L 3.28125 -26.484375 C 6.632812 -27.492188 9.28125 -27.757812 11.21875 -27.28125 C 13.15625 -26.8125 14.5 -25.328125 15.25 -22.828125 C 16.082031 -20.066406 15.65625 -17.867188 13.96875 -16.234375 C 12.394531 -14.722656 9.925781 -13.457031 6.5625 -12.4375 L 6.296875 -12.359375 L 9 -3.390625 L 13.171875 -4.65625 L 13.359375 -4.03125 L 0.5 -0.15625 L 0.3125 -0.78125 L 2.484375 -1.4375 L -4.171875 -23.546875 L -6.34375 -22.890625 Z M 2.34375 -25.5 L 6.109375 -12.984375 L 6.8125 -13.203125 C 8.144531 -13.597656 8.925781 -14.328125 9.15625 -15.390625 C 9.394531 -16.460938 9.207031 -18.019531 8.59375 -20.0625 L 8.109375 -21.671875 C 7.535156 -23.566406 6.894531 -24.816406 6.1875 -25.421875 C 5.488281 -26.035156 4.503906 -26.148438 3.234375 -25.765625 Z M 2.34375 -25.5 "/></g></g></g><g fill="#000000" fill-opacity="1"><g transform="translate(258.500048, 350.734689)"><g><path d="M -10.40625 -22.078125 L 5.765625 -30.296875 L 9.1875 -24.296875 L 8.640625 -24.015625 C 6.703125 -25.679688 5.054688 -26.660156 3.703125 -26.953125 C 2.359375 -27.242188 0.765625 -26.921875 -1.078125 -25.984375 L -2.171875 -25.421875 L 2.71875 -15.828125 L 3.78125 -16.375 C 4.757812 -16.863281 5.390625 -17.640625 5.671875 -18.703125 C 5.953125 -19.773438 5.910156 -21.003906 5.546875 -22.390625 L 6.015625 -22.625 L 10.703125 -13.421875 L 10.1875 -13.15625 C 9.019531 -14.519531 7.953125 -15.375 6.984375 -15.71875 C 6.015625 -16.0625 4.976562 -15.953125 3.875 -15.390625 L 3.125 -15.015625 L 8.203125 -5.03125 L 9.390625 -5.640625 C 11.296875 -6.609375 12.625 -8 13.375 -9.8125 C 14.132812 -11.632812 14.304688 -13.5625 13.890625 -15.59375 L 14.515625 -15.921875 L 17.71875 -9 L 0.65625 -0.328125 L 0.3125 -1.015625 L 2.15625 -1.953125 L -8.21875 -22.34375 L -10.0625 -21.40625 Z M -10.40625 -22.078125 "/></g></g></g><g fill="#000000" fill-opacity="1"><g transform="translate(286.373886, 335.645546)"><g><path d="M 2.984375 -11.640625 C 4.285156 -9.941406 5.570312 -8.859375 6.84375 -8.390625 C 8.125 -7.929688 9.519531 -8.28125 11.03125 -9.4375 C 12.550781 -10.601562 13.351562 -11.96875 13.4375 -13.53125 C 13.53125 -15.101562 12.84375 -16.847656 11.375 -18.765625 L 1.796875 -31.28125 L 0 -29.90625 L -0.390625 -30.421875 L 3.640625 -33.515625 L 4.03125 -33 L 2.515625 -31.828125 L 11.953125 -19.5 C 13.703125 -17.21875 14.492188 -15.125 14.328125 -13.21875 C 14.171875 -11.320312 12.804688 -9.390625 10.234375 -7.421875 C 7.660156 -5.453125 5.285156 -4.476562 3.109375 -4.5 C 0.941406 -4.53125 -1.132812 -5.847656 -3.125 -8.453125 L -12.328125 -20.46875 L -13.859375 -19.3125 L -14.25 -19.828125 L -5.515625 -26.5 L -5.125 -25.984375 L -6.9375 -24.609375 Z M 2.984375 -11.640625 "/></g></g></g><g fill="#000000" fill-opacity="1"><g transform="translate(312.505697, 314.36195)"><g><path d="M 7.3125 -8.65625 C 8.101562 -9.519531 8.566406 -10.488281 8.703125 -11.5625 C 8.847656 -12.644531 8.453125 -13.613281 7.515625 -14.46875 C 6.578125 -15.320312 5.53125 -15.617188 4.375 -15.359375 C 3.226562 -15.097656 1.867188 -14.476562 0.296875 -13.5 C -1.265625 -12.519531 -2.453125 -11.851562 -3.265625 -11.5 C -4.078125 -11.15625 -4.945312 -10.921875 -5.875 -10.796875 C -7.738281 -10.546875 -9.613281 -11.273438 -11.5 -12.984375 C -13.019531 -14.378906 -13.832031 -16.117188 -13.9375 -18.203125 C -14.050781 -20.296875 -13.25 -22.289062 -11.53125 -24.1875 C -10.707031 -25.101562 -9.710938 -25.929688 -8.546875 -26.671875 C -7.390625 -27.410156 -6.695312 -27.898438 -6.46875 -28.140625 C -6.25 -28.390625 -6.222656 -28.765625 -6.390625 -29.265625 L -6.125 -29.546875 L -0.765625 -25 L -1.140625 -24.578125 C -3.390625 -25.117188 -5.375 -25.347656 -7.09375 -25.265625 C -8.8125 -25.179688 -10.148438 -24.609375 -11.109375 -23.546875 C -12.078125 -22.484375 -12.582031 -21.4375 -12.625 -20.40625 C -12.664062 -19.382812 -12.273438 -18.5 -11.453125 -17.75 C -10.640625 -17.007812 -9.695312 -16.789062 -8.625 -17.09375 C -7.550781 -17.394531 -6.414062 -17.925781 -5.21875 -18.6875 C -4.03125 -19.445312 -3.238281 -19.941406 -2.84375 -20.171875 C -2.445312 -20.398438 -1.941406 -20.664062 -1.328125 -20.96875 C -0.710938 -21.28125 -0.175781 -21.5 0.28125 -21.625 C 0.75 -21.75 1.289062 -21.835938 1.90625 -21.890625 C 2.519531 -21.953125 3.085938 -21.914062 3.609375 -21.78125 C 4.867188 -21.488281 6.066406 -20.828125 7.203125 -19.796875 C 9.054688 -18.109375 10.015625 -16.171875 10.078125 -13.984375 C 10.148438 -11.796875 9.328125 -9.757812 7.609375 -7.875 C 6.722656 -6.894531 5.578125 -5.890625 4.171875 -4.859375 C 2.765625 -3.828125 2 -3.242188 1.875 -3.109375 C 1.65625 -2.859375 1.695312 -2.390625 2 -1.703125 L 1.671875 -1.34375 L -4.6875 -6.65625 L -4.296875 -7.109375 C -2.109375 -6.503906 0.078125 -6.285156 2.265625 -6.453125 C 4.453125 -6.617188 6.132812 -7.351562 7.3125 -8.65625 Z M 7.3125 -8.65625 "/></g></g></g><g fill="#000000" fill-opacity="1"><g transform="translate(332.553711, 291.06035)"><g><path d="M -20.25 -13.65625 L -10.5625 -29 L -4.53125 -25.59375 L -4.875 -25.0625 C -7.382812 -25.488281 -9.289062 -25.484375 -10.59375 -25.046875 C -11.894531 -24.609375 -13.101562 -23.515625 -14.21875 -21.765625 L -14.859375 -20.734375 L -5.765625 -14.984375 L -5.140625 -15.984375 C -4.554688 -16.910156 -4.410156 -17.90625 -4.703125 -18.96875 C -5.003906 -20.03125 -5.664062 -21.066406 -6.6875 -22.078125 L -6.40625 -22.53125 L 2.328125 -17.015625 L 2 -16.5 C 0.300781 -17.09375 -1.046875 -17.285156 -2.046875 -17.078125 C -3.054688 -16.878906 -3.894531 -16.253906 -4.5625 -15.203125 L -5 -14.5 L 4.484375 -8.515625 L 5.1875 -9.640625 C 6.332031 -11.441406 6.757812 -13.316406 6.46875 -15.265625 C 6.1875 -17.222656 5.347656 -18.972656 3.953125 -20.515625 L 4.328125 -21.109375 L 10.609375 -16.8125 L 0.390625 -0.625 L -0.25 -1.03125 L 0.859375 -2.765625 L -18.484375 -14.984375 L -19.59375 -13.25 Z M -20.25 -13.65625 "/></g></g></g><g fill="#000000" fill-opacity="1"><g transform="translate(65.011283, 102.428199)"><g><path d="M 6.140625 -8.859375 L 0.75 -10.6875 L -2.25 -6.75 L 0.890625 -1.953125 L 2.03125 -3.4375 L 2.40625 -3.15625 L 0.09375 -0.125 L -0.28125 -0.40625 L 0.421875 -1.34375 L -9.375 -16.78125 L -8.140625 -18.40625 L 9.328125 -13.046875 L 10.015625 -13.953125 L 10.390625 -13.671875 L 5.453125 -7.171875 L 5.078125 -7.453125 Z M -6.328125 -13.09375 L -2.53125 -7.28125 L 0.1875 -10.875 Z M -6.328125 -13.09375 "/></g></g></g><g fill="#000000" fill-opacity="1"><g transform="translate(87.762048, 75.788164)"><g><path d="M -0.125 -22.203125 L 5.078125 -26.34375 L 5.375 -25.96875 L 4.3125 -25.109375 L 14.578125 -12.15625 L 15.640625 -13.015625 L 15.9375 -12.640625 L 9.984375 -7.90625 L 9.6875 -8.28125 L 10.765625 -9.140625 L 1.078125 -21.375 L 0.984375 -21.296875 L 8.046875 -6.375 L 5.59375 -4.4375 L -7.875 -14.359375 L -7.96875 -14.296875 L 1.765625 -2.015625 L 2.84375 -2.875 L 3.140625 -2.5 L 0.484375 -0.390625 L 0.1875 -0.765625 L 1.265625 -1.609375 L -9 -14.5625 L -10.078125 -13.71875 L -10.375 -14.09375 L -5.09375 -18.265625 L 5.5 -10.265625 Z M -0.125 -22.203125 "/></g></g></g><g fill="#000000" fill-opacity="1"><g transform="translate(119.572513, 53.779472)"><g><path d="M -6.71875 -16.15625 L 5.109375 -21.5 L 7.390625 -17.09375 L 6.96875 -16.90625 C 5.632812 -18.144531 4.488281 -18.890625 3.53125 -19.140625 C 2.582031 -19.398438 1.429688 -19.222656 0.078125 -18.609375 L -0.71875 -18.25 L 2.453125 -11.234375 L 3.234375 -11.59375 C 3.941406 -11.90625 4.414062 -12.441406 4.65625 -13.203125 C 4.894531 -13.960938 4.914062 -14.835938 4.71875 -15.828125 L 5.046875 -15.984375 L 8.09375 -9.25 L 7.71875 -9.078125 C 6.914062 -10.085938 6.171875 -10.726562 5.484375 -11 C 4.804688 -11.28125 4.070312 -11.238281 3.28125 -10.875 L 2.71875 -10.625 L 6.03125 -3.328125 L 6.90625 -3.71875 C 8.300781 -4.351562 9.296875 -5.304688 9.890625 -6.578125 C 10.484375 -7.859375 10.675781 -9.234375 10.46875 -10.703125 L 10.921875 -10.90625 L 12.96875 -5.859375 L 0.484375 -0.21875 L 0.265625 -0.71875 L 1.609375 -1.328125 L -5.140625 -16.25 L -6.484375 -15.640625 Z M -6.71875 -16.15625 "/></g></g></g><g fill="#000000" fill-opacity="1"><g transform="translate(150.872784, 41.885335)"><g><path d="M -2.9375 -17.25 L 5.875 -19.015625 L 5.984375 -18.46875 L 3.375 -17.953125 L 6.609375 -1.890625 L 7.5 -2.0625 C 8.894531 -2.34375 9.914062 -2.988281 10.5625 -4 C 11.207031 -5.019531 11.78125 -6.5 12.28125 -8.4375 L 12.796875 -8.546875 L 13.5 -2.71875 L 0.515625 -0.109375 L 0.40625 -0.640625 L 1.84375 -0.921875 L -1.390625 -16.984375 L -2.828125 -16.703125 Z M -2.9375 -17.25 "/></g></g></g><g fill="#000000" fill-opacity="1"><g transform="translate(183.541465, 37.495462)"><g><path d="M 0.71875 -17.484375 L 8.328125 -17.4375 L 8.328125 -16.953125 L 6.953125 -16.96875 L 6.859375 -0.4375 L 8.234375 -0.421875 L 8.234375 0.046875 L 0.625 0 L 0.625 -0.46875 L 2 -0.453125 L 2.09375 -16.984375 L 0.71875 -17 Z M 0.71875 -17.484375 "/></g></g></g><g fill="#000000" fill-opacity="1"><g transform="translate(210.45558, 39.160147)"><g><path d="M 4.1875 -16.984375 L 16.890625 -14.25 L 16.09375 -9.359375 L 15.65625 -9.453125 C 15.320312 -11.242188 14.847656 -12.523438 14.234375 -13.296875 C 13.617188 -14.066406 12.582031 -14.609375 11.125 -14.921875 L 10.265625 -15.109375 L 8.640625 -7.578125 L 9.484375 -7.390625 C 10.242188 -7.222656 10.945312 -7.367188 11.59375 -7.828125 C 12.238281 -8.296875 12.773438 -9 13.203125 -9.9375 L 13.5625 -9.859375 L 12.015625 -2.640625 L 11.609375 -2.71875 C 11.566406 -4 11.347656 -4.953125 10.953125 -5.578125 C 10.566406 -6.210938 9.945312 -6.625 9.09375 -6.8125 L 8.5 -6.9375 L 6.8125 0.90625 L 7.75 1.109375 C 9.25 1.429688 10.617188 1.253906 11.859375 0.578125 C 13.097656 -0.0859375 14.066406 -1.078125 14.765625 -2.390625 L 15.25 -2.28125 L 13.921875 2.984375 L 0.515625 0.109375 L 0.625 -0.421875 L 2.0625 -0.109375 L 5.515625 -16.125 L 4.078125 -16.4375 Z M 4.1875 -16.984375 "/></g></g></g><g fill="#000000" fill-opacity="1"><g transform="translate(242.638403, 48.054121)"><g><path d="M 19.984375 -0.359375 C 18.484375 2.722656 16.578125 4.445312 14.265625 4.8125 C 12.117188 5.164062 9.644531 4.664062 6.84375 3.3125 L 0.484375 0.234375 L 0.6875 -0.1875 L 2.15625 0.515625 L 9.359375 -14.375 L 7.890625 -15.078125 L 8.09375 -15.5 L 15.015625 -12.15625 C 17.898438 -10.757812 19.773438 -9.125 20.640625 -7.25 C 21.515625 -5.375 21.296875 -3.078125 19.984375 -0.359375 Z M 6.546875 2.640625 L 7.390625 3.046875 C 8.910156 3.785156 10.253906 3.773438 11.421875 3.015625 C 12.597656 2.253906 13.789062 0.617188 15 -1.890625 L 15.640625 -3.203125 C 17.273438 -6.578125 17.609375 -8.921875 16.640625 -10.234375 C 16.191406 -10.859375 15.40625 -11.441406 14.28125 -11.984375 L 13.75 -12.25 Z M 6.546875 2.640625 "/></g></g></g><g fill="#000000" fill-opacity="1"><g transform="translate(274.543159, 66.050205)"><g><path d="M 11.515625 -13.15625 L 21.546875 -4.90625 L 18.59375 -0.921875 L 18.25 -1.203125 C 18.78125 -2.953125 18.945312 -4.304688 18.75 -5.265625 C 18.550781 -6.234375 17.875 -7.191406 16.71875 -8.140625 L 16.046875 -8.703125 L 11.15625 -2.75 L 11.8125 -2.203125 C 12.414062 -1.703125 13.109375 -1.515625 13.890625 -1.640625 C 14.679688 -1.765625 15.476562 -2.140625 16.28125 -2.765625 L 16.578125 -2.53125 L 11.875 3.171875 L 11.546875 2.90625 C 12.109375 1.75 12.359375 0.800781 12.296875 0.0625 C 12.242188 -0.664062 11.878906 -1.304688 11.203125 -1.859375 L 10.734375 -2.25 L 5.640625 3.9375 L 6.375 4.546875 C 7.550781 5.515625 8.847656 5.984375 10.265625 5.953125 C 11.679688 5.929688 13 5.5 14.21875 4.65625 L 14.59375 4.96875 L 10.984375 9.046875 L 0.40625 0.34375 L 0.75 -0.078125 L 1.890625 0.84375 L 12.296875 -11.796875 L 11.15625 -12.71875 Z M 11.515625 -13.15625 "/></g></g></g><g fill="#000000" fill-opacity="1"><g transform="translate(299.0403, 88.797791)"><g><path d="M 10.078125 5.8125 L 22.65625 1.734375 L 21.484375 0.1875 L 21.859375 -0.09375 L 24.171875 2.9375 L 23.796875 3.21875 L 23.09375 2.296875 L 5.703125 7.9375 L 4.4375 6.265625 L 14.328125 -9.25 L 13.640625 -10.15625 L 14.015625 -10.4375 L 18.953125 -3.9375 L 18.578125 -3.65625 L 17.5 -5.0625 Z M 10.078125 5.8125 "/></g></g></g></svg>