<?xml version="1.0" standalone="no"?>
<!DOCTYPE svg PUBLIC "-//W3C//DTD SVG 20010904//EN"
 "http://www.w3.org/TR/2001/REC-SVG-20010904/DTD/svg10.dtd">
<svg version="1.0" xmlns="http://www.w3.org/2000/svg"
 width="700.000000pt" height="700.000000pt" viewBox="0 0 700.000000 700.000000"
 preserveAspectRatio="xMidYMid meet">
<metadata>
Created by potrace 1.14, written by Peter Selinger 2001-2017
</metadata>
<g transform="translate(0.000000,700.000000) scale(0.100000,-0.100000)"
fill="#000000" stroke="none">
<path d="M3279 6996 c-2 -2 -40 -6 -84 -10 -99 -8 -164 -15 -190 -21 -11 -2
-42 -7 -70 -10 -41 -6 -121 -22 -245 -50 -294 -67 -610 -190 -894 -350 -835
-467 -1458 -1275 -1686 -2185 -84 -336 -109 -548 -105 -905 2 -137 5 -266 8
-285 3 -19 11 -78 16 -131 36 -326 158 -736 317 -1064 214 -441 485 -792 897
-1160 7 -6 59 -47 117 -91 258 -198 521 -351 805 -469 133 -55 401 -144 483
-160 9 -1 35 -8 57 -14 117 -31 334 -65 522 -81 96 -8 549 -6 588 3 11 3 52 8
90 11 39 4 80 8 90 10 11 2 40 7 65 11 85 14 132 23 215 42 606 135 1202 457
1650 893 415 403 709 867 892 1405 43 128 106 364 118 447 4 24 8 45 10 48 2
3 6 30 10 60 4 30 8 57 10 60 2 3 6 39 10 80 4 41 9 89 12 105 3 17 6 138 8
270 4 298 -5 402 -61 730 -11 62 -74 303 -103 392 -264 808 -816 1497 -1551
1935 -414 247 -910 415 -1365 463 -33 4 -71 9 -85 12 -30 6 -545 15 -551 9z
m511 -60 c25 -3 72 -8 105 -11 396 -40 891 -196 1246 -394 227 -126 466 -293
629 -437 462 -411 804 -922 994 -1488 45 -131 120 -421 130 -497 3 -19 7 -46
10 -59 24 -113 43 -379 40 -590 -2 -212 -4 -247 -26 -405 -6 -44 -12 -89 -13
-100 -7 -57 -49 -251 -71 -334 -277 -1028 -995 -1862 -1969 -2286 -281 -122
-643 -223 -905 -250 -30 -4 -61 -8 -68 -10 -54 -18 -526 -26 -677 -11 -87 8
-272 32 -320 41 -237 46 -433 101 -640 182 -1041 405 -1823 1288 -2097 2368
-16 66 -32 129 -34 140 -51 264 -69 443 -69 700 0 324 28 548 105 855 130 517
385 1003 739 1410 306 352 685 641 1105 845 74 36 138 65 141 65 3 0 30 11 58
24 62 28 291 106 397 135 97 26 348 77 425 86 33 4 69 9 79 11 11 2 65 6 120
10 56 4 102 8 104 9 6 5 417 -3 462 -9z"/>
<path d="M3450 6619 c0 -5 3 -9 8 -9 4 0 7 -66 6 -146 -1 -112 -5 -148 -15
-155 -9 -5 15 -8 61 -8 41 0 68 3 60 7 -13 6 -16 30 -14 157 1 113 4 149 13
147 7 -1 10 1 7 6 -7 12 -126 13 -126 1z"/>
<path d="M4015 6580 c-3 -4 -1 -10 4 -12 9 -3 -41 -267 -54 -289 -4 -5 -11 -6
-17 -3 -6 4 -8 2 -5 -3 4 -6 21 -14 39 -17 18 -3 44 -8 58 -11 14 -3 45 -10
70 -15 25 -5 52 -11 61 -15 13 -5 19 4 28 39 15 62 15 62 -24 27 -33 -29 -57
-37 -95 -31 -8 1 -16 3 -18 5 -5 5 20 129 27 137 11 12 51 -21 51 -42 0 -24
20 -37 21 -13 1 19 2 28 14 84 l7 34 -21 -22 c-24 -25 -77 -32 -68 -9 3 7 8
34 12 58 10 66 17 74 53 59 29 -12 44 -32 58 -81 l8 -25 7 30 c16 71 16 71
-73 89 -46 10 -95 21 -110 26 -15 5 -30 5 -33 0z"/>
<path d="M2831 6555 c-64 -14 -89 -25 -58 -25 9 0 19 -10 22 -22 3 -13 16 -77
30 -143 23 -112 24 -121 8 -132 -22 -16 -23 -17 93 7 152 31 144 28 140 53 -3
12 -5 34 -5 50 -1 40 -13 33 -37 -22 -16 -36 -29 -51 -52 -59 l-31 -11 -11 53
c-6 29 -13 65 -16 81 -3 15 -11 53 -17 84 -17 75 -16 84 13 92 47 13 -11 8
-79 -6z"/>
<path d="M2275 6374 c-28 -13 -76 -35 -107 -49 -32 -14 -58 -28 -58 -31 0 -4
6 -4 14 -1 20 8 139 -262 123 -281 -9 -11 -5 -11 23 0 106 45 200 93 199 102
0 6 -8 29 -18 51 l-18 40 -7 -44 c-6 -40 -50 -101 -73 -101 -8 0 -63 116 -63
133 0 13 45 7 68 -9 28 -19 28 -17 -5 53 -27 55 -28 57 -31 28 -4 -33 -18 -55
-36 -55 -6 0 -23 28 -38 63 -22 52 -24 63 -12 70 27 15 72 10 103 -12 37 -27
38 -25 8 27 l-23 40 -49 -24z"/>
<path d="M4689 6381 c12 -8 3 -34 -52 -146 -50 -102 -71 -136 -82 -131 -29 11
-14 -3 30 -27 63 -36 150 -67 186 -67 64 0 113 45 141 129 18 53 10 102 -23
137 -21 22 -187 114 -206 114 -4 0 -1 -4 6 -9z m147 -87 c19 -28 14 -66 -18
-136 -35 -75 -74 -118 -106 -117 -63 1 -63 4 7 150 54 114 68 135 83 131 11
-2 26 -15 34 -28z"/>
<path d="M1690 6044 c-25 -20 -46 -39 -48 -43 -1 -4 20 -56 47 -115 57 -121
62 -120 -69 -17 -36 28 -71 51 -78 51 -7 0 -27 -13 -45 -30 -18 -16 -35 -30
-39 -30 -5 0 -8 -4 -8 -10 0 -5 6 -7 13 -4 15 5 194 -219 189 -237 -1 -6 7 -5
20 2 19 10 20 13 6 18 -16 6 -168 192 -168 206 0 3 37 -22 83 -57 144 -110
144 -110 172 -92 27 18 26 20 -41 157 -44 89 -59 126 -45 112 40 -41 159 -201
151 -203 -6 -2 -10 -8 -10 -13 0 -6 27 11 60 37 33 26 60 49 60 52 0 2 -6 -1
-14 -7 -19 -16 -211 226 -194 246 17 20 7 15 -42 -23z"/>
<path d="M5343 5992 c0 -10 -39 -66 -89 -125 -70 -85 -93 -107 -109 -103 -21
5 -8 -8 118 -111 l68 -56 29 34 c35 41 38 54 9 38 -31 -16 -83 -14 -113 6
l-25 17 42 54 c51 65 72 66 72 5 l0 -43 42 49 c24 26 43 52 43 58 0 5 -5 4
-12 -3 -17 -17 -67 -15 -74 2 -3 8 8 30 26 49 17 19 37 42 43 51 11 16 15 15
37 -9 19 -20 24 -35 23 -72 l-2 -47 24 30 c13 16 24 34 25 40 0 9 -27 33 -157
137 -21 17 -22 17 -20 -1z"/>
<path d="M5843 5518 c0 -7 -37 -71 -83 -142 -95 -150 -96 -152 -81 -170 9 -11
39 -4 169 39 110 37 161 50 170 43 19 -16 14 4 -9 32 -16 21 -19 22 -17 6 3
-16 -14 -25 -101 -53 -57 -18 -105 -32 -107 -30 -5 5 115 182 126 185 5 2 10
-2 10 -9 0 -7 3 -10 6 -6 6 6 -66 117 -77 117 -3 0 -6 -6 -6 -12z"/>
<path d="M1050 5415 c-10 -12 -1 -31 47 -105 32 -50 63 -98 68 -108 6 -9 20
-34 33 -54 13 -21 21 -42 17 -48 -15 -25 6 -7 26 23 16 22 18 28 6 18 -10 -8
-19 -12 -21 -10 -1 2 -14 21 -29 43 l-25 38 26 37 27 38 48 -16 c31 -10 46
-20 43 -28 -11 -27 10 -11 44 34 42 57 59 84 40 66 -9 -9 -22 -8 -54 2 -103
33 -275 85 -279 85 -2 0 -10 -7 -17 -15z m127 -111 c28 -12 32 -18 24 -33 -21
-38 -37 -43 -55 -16 -9 14 -24 37 -33 51 -17 26 -17 27 7 19 13 -4 38 -14 57
-21z"/>
<path d="M3233 4859 c-107 -10 -202 -20 -221 -24 -16 -3 -113 -13 -192 -21
-51 -5 -248 -5 -295 0 -22 2 -74 8 -115 12 -80 8 -218 9 -260 1 -94 -18 -99
-25 -95 -137 12 -338 17 -454 20 -515 6 -103 14 -290 20 -455 8 -220 22 -438
30 -470 2 -8 7 -35 10 -60 4 -25 15 -78 25 -118 l18 -73 -63 -39 c-75 -48
-190 -167 -301 -310 -45 -58 -94 -118 -109 -134 -30 -33 -31 -49 -4 -233 l13
-93 34 -6 c33 -6 229 0 437 13 145 10 548 10 700 0 293 -20 396 -26 535 -32
63 -3 149 -7 190 -10 500 -27 1096 -26 1313 1 38 5 208 33 232 38 6 1 36 8 67
15 32 7 61 17 64 23 4 6 8 48 9 92 2 45 6 92 9 106 19 72 18 85 -9 115 -15 17
-81 95 -148 175 -67 80 -162 184 -211 231 l-90 87 -2 718 c-2 396 -5 735 -8
754 -3 19 -8 96 -11 170 -3 74 -9 137 -13 141 -4 4 -182 10 -397 13 -214 3
-410 8 -435 10 -211 17 -624 26 -747 15z m457 -24 c102 -4 203 -8 225 -10 84
-8 400 -17 630 -20 132 -2 242 -3 246 -4 3 0 5 -34 5 -73 0 -40 3 -104 7 -143
13 -121 18 -338 17 -720 -2 -477 -1 -507 3 -653 5 -163 4 -169 -42 -176 -20
-3 -234 -8 -476 -12 -242 -3 -492 -8 -555 -9 -96 -3 -901 -13 -1398 -19 -74 0
-138 1 -143 4 -9 6 -44 138 -54 206 -16 116 -24 218 -30 379 -3 72 -7 177 -10
235 -2 58 -8 170 -11 250 -4 80 -8 170 -9 200 -2 30 -6 157 -10 282 l-7 228
28 11 c46 18 228 21 369 6 72 -8 177 -13 235 -12 99 2 259 14 270 20 3 2 41 6
85 10 44 4 83 9 87 12 4 2 65 6 135 10 70 3 129 6 130 7 1 1 22 1 45 0 24 -1
126 -5 228 -9z m1220 -1892 c46 -43 139 -145 208 -228 69 -82 134 -158 144
-168 36 -35 14 -55 -73 -65 -70 -8 -113 -8 -359 1 -91 4 -248 10 -350 14 -102
4 -716 8 -1365 9 -1387 3 -1377 3 -1368 18 20 32 203 258 247 304 28 29 80 73
116 97 l65 45 490 5 c476 5 657 8 1335 21 179 3 432 7 563 8 130 2 240 6 244
9 12 13 21 7 103 -70z m-2870 -458 c74 -5 457 -7 850 -5 1276 5 1491 3 1865
-17 72 -4 209 -8 305 -8 152 0 180 2 203 18 31 20 31 19 16 -54 -6 -30 -11
-81 -10 -115 l1 -60 -113 -23 c-137 -27 -139 -27 -212 -36 -33 -4 -69 -9 -79
-11 -121 -22 -611 -22 -1151 1 -117 5 -371 17 -435 20 -36 2 -117 7 -180 10
-63 3 -133 7 -155 10 -180 18 -487 24 -685 12 -63 -4 -158 -9 -210 -13 -222
-13 -301 -11 -309 5 -10 19 -33 159 -36 218 -2 47 -1 48 90 52 33 2 61 4 63 5
1 2 13 2 25 1 12 -2 83 -6 157 -10z"/>
<path d="M4587 4713 c-2 -1 -257 -5 -567 -8 -706 -7 -1318 -15 -1390 -20 -30
-1 -113 -6 -185 -10 -71 -3 -143 -7 -160 -8 -38 -2 -53 -27 -49 -81 11 -165
15 -208 24 -285 6 -47 12 -99 15 -116 2 -16 7 -61 10 -100 4 -38 9 -78 11 -88
2 -10 6 -48 10 -85 3 -36 8 -75 10 -87 17 -82 25 -478 13 -660 l-4 -70 780 0
c790 0 1091 7 1350 30 111 10 220 32 233 48 12 15 23 65 27 126 16 229 20 374
20 746 0 499 -7 596 -44 654 -7 11 -95 23 -104 14z m100 -73 c8 -25 16 -106
20 -180 13 -281 6 -931 -12 -1110 -12 -117 -16 -146 -23 -156 -7 -11 -72 -27
-152 -38 -89 -12 -224 -20 -566 -32 -253 -9 -1592 -11 -1606 -3 -6 4 -8 15 -4
24 18 49 25 327 12 500 -7 86 -33 333 -41 385 -2 14 -7 57 -10 95 -4 39 -8 77
-10 85 -2 8 -7 43 -10 77 -4 35 -8 75 -10 90 -2 16 -7 81 -11 146 l-7 117 29
1 c16 0 36 2 45 4 9 1 88 6 175 10 88 4 191 9 229 11 39 2 382 6 764 9 382 3
696 6 697 8 1 1 109 2 240 2 l238 0 13 -45z"/>
<path d="M2429 2935 c-3 -2 -42 -5 -88 -6 -93 -2 -105 -10 -143 -84 -11 -22
-31 -54 -44 -72 -33 -44 -31 -54 10 -47 58 9 312 8 506 -1 102 -5 357 -10 567
-10 210 0 381 -1 380 -1 -9 -8 -137 -16 -302 -19 -193 -5 -200 -5 -217 -27
-17 -23 -42 -117 -34 -126 6 -5 151 -3 206 4 45 5 295 5 380 -1 63 -4 148 8
182 26 42 22 -35 122 -105 137 -35 8 -21 10 83 12 148 3 87 3 611 -6 485 -8
462 -12 402 76 -19 29 -42 72 -50 96 -17 49 -16 48 -45 33 -25 -14 -163 -15
-483 -4 -407 13 -1808 29 -1816 20z m189 -33 c2 -7 -9 -12 -27 -13 -17 -1 -43
-1 -58 -2 -46 -2 -38 22 9 25 60 4 71 3 76 -10z m152 8 c-1 -23 -28 -28 -117
-21 -7 1 -10 7 -8 14 5 12 125 19 125 7z m157 -4 c3 -2 2 -9 -2 -15 -6 -10
-135 -16 -135 -7 0 25 15 31 71 29 34 -1 63 -4 66 -7z m154 -10 c-15 -18 -131
-19 -131 -2 0 19 10 22 80 18 46 -3 59 -7 51 -16z m-734 -1 c-4 -10 -97 -21
-97 -10 0 10 43 22 73 21 15 0 26 -5 24 -11z m125 3 c-18 -18 -101 -18 -95 -1
3 8 23 13 56 13 40 0 48 -3 39 -12z m778 -1 c0 -8 -21 -12 -70 -13 -51 0 -70
3 -70 13 0 9 19 13 70 13 49 0 70 -4 70 -13z m127 -4 c3 -8 -13 -11 -51 -11
-53 1 -64 6 -49 21 11 11 96 3 100 -10z m111 -1 c2 -8 -11 -12 -42 -12 -42 0
-55 7 -40 22 10 11 78 2 82 -10z m160 4 c23 -14 4 -22 -50 -20 -74 2 -75 3
-81 17 -4 10 10 13 57 12 33 0 67 -4 74 -9z m177 -7 c10 -9 4 -10 -87 -12 -40
-1 -54 3 -56 14 -2 12 9 14 65 11 37 -2 72 -8 78 -13z m170 1 c4 -6 -22 -10
-69 -10 -44 0 -76 4 -76 10 0 6 30 10 69 10 39 0 73 -4 76 -10z m178 1 c9 -1
17 -5 17 -10 0 -11 -152 -3 -163 8 -7 7 43 8 146 2z m167 -13 c0 -10 -18 -12
-65 -10 -84 5 -84 22 0 22 45 0 65 -4 65 -12z m154 3 c5 -1 6 -4 2 -8 -12 -13
-126 -11 -126 2 0 9 68 13 124 6z m256 -6 c0 -11 -11 -15 -40 -15 -43 0 -55
16 -17 23 44 9 57 7 57 -8z m-100 -5 c0 -10 -10 -12 -50 -12 -59 0 -80 3 -80
12 0 6 28 10 65 10 37 0 65 -4 65 -10z m-2043 -9 c7 -1 10 -8 7 -16 -9 -21
-134 -22 -134 -1 0 18 45 24 127 17z m120 0 c16 -1 20 -6 16 -20 -4 -16 -13
-19 -51 -16 -26 2 -50 3 -54 4 -3 1 -4 9 -2 19 4 12 14 17 37 15 18 -1 42 -2
54 -2z m-409 -20 c-2 -12 -17 -17 -56 -19 -49 -3 -52 -2 -41 15 15 25 102 29
97 4z m142 10 c0 -15 -13 -20 -68 -27 -48 -6 -50 -5 -45 15 5 18 13 21 59 21
30 0 54 -4 54 -9z m444 -9 c-1 -7 -2 -17 -2 -22 -1 -7 -19 -9 -44 -6 -24 3
-53 5 -65 5 -16 1 -23 7 -23 20 0 17 7 18 68 17 45 -2 67 -6 66 -14z m176 0
c0 -27 -19 -39 -57 -36 -18 1 -46 2 -63 3 -30 1 -39 18 -20 37 5 5 39 11 75
12 58 2 65 1 65 -16z m173 -2 c7 -26 2 -28 -63 -30 -89 -3 -90 -2 -90 25 0 24
2 25 74 25 65 0 74 -2 79 -20z m132 -5 c0 -17 -7 -20 -50 -20 -44 0 -50 3 -53
22 -3 21 0 22 50 20 46 -2 53 -5 53 -22z m116 16 c4 0 9 -10 12 -21 5 -18 1
-20 -31 -19 -56 2 -72 9 -72 28 0 15 7 18 43 16 23 -1 45 -3 48 -4z m343 -18
c4 -9 5 -17 4 -19 -2 -1 -33 -4 -69 -6 -56 -4 -68 -2 -78 14 -6 10 -11 20 -11
22 0 6 120 12 137 8 6 -2 14 -11 17 -19z m174 5 c3 -16 -6 -18 -72 -18 -66 0
-76 2 -76 18 0 15 9 18 72 17 61 0 73 -3 76 -17z m125 13 c39 -1 47 -4 47 -20
0 -17 -7 -19 -63 -17 -34 1 -68 5 -75 10 -22 13 -13 32 16 30 15 -1 48 -2 75
-3z m-473 -10 c0 -5 2 -15 5 -23 4 -10 -4 -13 -32 -12 -21 1 -52 3 -69 3 -23
1 -33 7 -37 21 -5 19 0 20 64 20 38 0 69 -4 69 -9z m681 -13 c7 -10 -5 -14
-53 -16 -71 -4 -90 2 -82 22 7 19 123 14 135 -6z m157 -11 c3 -17 -3 -18 -60
-16 -58 3 -77 11 -78 32 0 4 30 7 67 5 56 -3 68 -6 71 -21z m110 14 c36 -1 42
-4 42 -22 0 -19 -5 -20 -62 -17 -56 3 -63 6 -66 26 -3 18 1 21 20 18 13 -3 42
-5 66 -5z m153 -8 c7 -7 10 -15 7 -19 -10 -9 -88 -12 -88 -3 0 4 -2 14 -5 21
-7 18 68 19 86 1z m-2331 -32 c-1 -18 -19 -29 -50 -31 -62 -4 -72 -1 -68 18 2
12 16 19 43 22 42 6 75 2 75 -9z m160 -2 c0 -26 -21 -35 -75 -33 -78 2 -76 1
-64 27 9 21 17 23 75 23 52 -1 64 -4 64 -17z m-300 1 c-1 -22 -25 -34 -75 -37
-52 -3 -55 -2 -45 16 5 11 15 21 21 23 17 6 99 4 99 -2z m430 -15 c0 -24 -3
-25 -55 -25 -47 0 -55 3 -55 18 0 28 9 32 62 32 45 0 48 -2 48 -25z m126 16
c38 -1 41 -3 36 -26 -4 -25 -7 -25 -73 -23 -38 2 -69 5 -69 8 1 33 14 48 38
45 15 -1 46 -3 68 -4z m542 -25 c5 -25 -10 -33 -60 -31 -47 1 -70 23 -50 47
17 22 106 9 110 -16z m630 20 c7 -4 12 -15 12 -24 0 -17 -13 -19 -121 -13 -20
1 -34 32 -19 41 14 8 113 5 128 -4z m-960 -11 c2 -2 1 -12 -2 -22 -4 -13 -15
-18 -34 -17 -15 1 -48 2 -73 3 -43 1 -46 3 -42 24 4 23 8 23 76 19 40 -2 74
-5 75 -7z m190 -12 l-3 -28 -82 0 c-79 0 -83 1 -83 21 0 27 3 28 96 32 l75 3
-3 -28z m280 2 l12 -26 -62 3 c-57 3 -63 5 -66 26 -3 20 0 22 51 22 48 0 55
-3 65 -25z m163 3 c5 -7 3 -16 -4 -20 -17 -11 -127 -10 -127 1 0 5 -2 16 -5
24 -5 11 6 13 61 10 39 -2 71 -8 75 -15z m169 -4 c8 -19 4 -20 -62 -19 -48 1
-72 5 -78 15 -13 21 0 25 70 25 54 0 64 -3 70 -21z m325 3 c0 -22 -3 -24 -62
-23 -35 1 -63 4 -63 8 0 3 -3 13 -6 22 -5 14 4 16 62 16 66 0 69 -1 69 -23z
m164 9 c14 -9 14 -33 1 -38 -5 -1 -38 -1 -72 2 -56 4 -63 8 -66 27 -3 22 -1
22 61 19 36 -2 70 -7 76 -10z m151 -24 c0 -22 -2 -23 -57 -18 -32 3 -59 5 -60
5 -2 1 -3 10 -3 21 0 19 6 20 60 18 56 -2 60 -4 60 -26z m308 1 l14 -23 -61 0
c-33 0 -61 2 -61 4 0 2 -3 11 -6 20 -4 11 3 16 33 19 57 6 64 4 81 -20z m-138
-3 c0 -18 -7 -20 -70 -20 -38 0 -70 2 -70 4 0 2 -3 11 -6 20 -5 14 5 16 70 16
69 0 76 -2 76 -20z m-917 -83 c15 -9 33 -30 42 -46 14 -28 14 -30 -8 -37 -39
-14 -50 -14 -147 -13 -212 4 -341 3 -448 -4 l-114 -7 7 33 c11 51 32 77 63 77
106 -1 424 9 428 13 3 2 38 4 78 3 50 -1 81 -7 99 -19z"/>
<path d="M950 2119 c7 -11 10 -22 8 -24 -2 -1 -81 -53 -177 -114 -165 -106
-174 -111 -192 -95 -31 28 -22 11 42 -88 78 -118 112 -155 172 -183 58 -28
101 -25 171 10 131 65 174 158 128 271 -21 50 -144 244 -155 244 -4 0 -3 -9 3
-21z m104 -163 c9 -19 16 -44 16 -56 0 -34 -47 -86 -124 -137 -87 -59 -157
-84 -198 -72 -29 8 -67 45 -67 64 -1 9 335 233 350 234 4 1 14 -14 23 -33z"/>
<path d="M5980 2062 c-16 -26 -56 -90 -89 -142 -33 -52 -57 -97 -54 -100 3 -3
8 1 10 8 3 6 10 12 16 12 7 0 89 -49 182 -109 151 -96 170 -110 167 -132 -2
-15 0 -20 6 -14 16 17 182 285 182 294 0 8 -104 81 -115 81 -2 0 7 -21 20 -46
29 -54 32 -102 9 -147 -9 -18 -18 -34 -20 -36 -2 -2 -106 60 -166 100 -13 9 1
35 25 46 12 6 39 8 60 6 20 -2 37 -2 37 0 0 2 -28 21 -62 42 -35 21 -74 46
-88 54 l-25 16 23 -36 c25 -41 29 -81 9 -97 -10 -9 -34 2 -97 42 l-84 54 42
42 c39 39 44 41 91 39 28 -2 51 1 52 6 0 4 -22 21 -50 36 l-51 29 -30 -48z"/>
<path d="M5713 1668 c-4 -7 -30 -31 -57 -52 -99 -80 -109 -179 -26 -250 55
-46 88 -44 195 9 103 52 132 54 160 11 14 -21 14 -28 1 -59 -23 -57 -57 -72
-155 -71 l-85 2 44 -39 c59 -52 80 -64 80 -46 0 7 25 35 56 62 69 59 94 99 94
148 0 52 -23 96 -67 130 -54 41 -101 37 -188 -14 -87 -51 -132 -56 -154 -17
-19 33 -7 72 30 100 27 21 91 26 151 13 30 -7 31 -6 19 9 -8 9 -31 30 -52 47
-28 22 -40 26 -46 17z"/>
<path d="M1291 1634 c11 -14 -6 -35 -141 -164 -148 -142 -156 -148 -174 -132
-10 9 -17 12 -15 5 2 -6 59 -67 126 -136 l121 -124 51 44 c28 25 51 49 51 53
0 5 -17 3 -38 -4 -46 -17 -87 -14 -128 7 -66 34 -65 42 15 120 l74 71 18 -23
c23 -28 24 -43 3 -82 -8 -17 -14 -33 -12 -35 3 -2 38 28 79 68 41 39 65 68 54
64 -47 -18 -81 -18 -104 1 l-23 19 67 64 c36 36 71 65 78 65 6 0 22 -16 35
-35 24 -35 26 -71 6 -140 -6 -22 -1 -19 40 20 25 24 45 48 44 51 -6 16 -221
239 -231 239 -5 0 -3 -7 4 -16z"/>
<path d="M1440 1595 l-55 -12 59 -26 c68 -31 91 -34 100 -11 8 20 -17 61 -36
60 -7 0 -38 -5 -68 -11z"/>
<path d="M5394 1347 c-5 -7 -21 -20 -35 -29 l-24 -18 26 6 c24 5 34 -6 122
-124 54 -71 102 -143 108 -160 22 -63 -50 -145 -112 -128 -36 10 -56 30 -163
169 -97 127 -98 128 -80 149 26 29 4 16 -76 -45 -85 -66 -90 -71 -64 -63 19 6
36 -12 123 -124 104 -133 136 -160 191 -160 56 0 148 57 187 116 37 57 18 106
-97 254 -98 126 -105 137 -90 155 15 18 0 20 -16 2z"/>
<path d="M1641 1289 c15 -13 11 -35 -47 -244 l-63 -230 21 -17 c26 -19 20 -21
134 60 229 163 276 194 289 188 8 -3 15 -2 15 2 0 9 -63 52 -75 52 -5 0 1 -7
13 -16 22 -15 22 -15 -35 -58 -139 -101 -225 -157 -219 -140 3 9 25 78 47 153
23 75 43 139 46 143 2 5 13 3 24 -2 44 -24 13 9 -56 57 -71 51 -132 84 -94 52z"/>
<path d="M4885 995 c-22 -12 -89 -47 -150 -78 -60 -32 -99 -56 -87 -55 21 3
34 -17 120 -184 95 -183 97 -187 77 -202 -40 -31 -1 -14 155 65 l159 80 -31
64 c-33 67 -48 76 -40 27 6 -44 -30 -118 -70 -142 -18 -11 -35 -20 -38 -20 -3
0 -25 41 -49 91 -37 75 -42 92 -30 100 20 14 69 2 96 -23 31 -29 29 -18 -14
73 -37 75 -56 98 -52 62 4 -41 -2 -63 -23 -83 -12 -11 -24 -20 -28 -20 -10 0
-91 171 -85 180 3 5 23 14 45 20 42 11 95 -3 132 -37 12 -11 18 -12 18 -4 0
14 -48 99 -58 104 -4 2 -25 -7 -47 -18z"/>
<path d="M2100 983 c0 -3 6 -11 14 -17 12 -9 10 -20 -12 -66 -15 -30 -56 -117
-91 -193 -44 -94 -68 -134 -75 -127 -12 12 -26 13 -26 1 0 -5 17 -16 38 -24
20 -8 90 -40 155 -71 65 -31 121 -56 125 -56 9 0 62 105 62 121 0 6 -14 -1
-30 -15 -42 -35 -95 -48 -142 -36 -20 6 -40 15 -43 20 -3 5 14 50 37 101 l43
91 24 -19 c18 -15 26 -34 30 -69 l6 -49 41 85 c23 47 40 86 39 88 -2 2 -18 -6
-36 -17 -35 -22 -65 -26 -86 -13 -15 9 64 182 83 182 7 0 29 -14 48 -30 29
-26 36 -40 42 -86 7 -63 14 -61 43 12 l20 51 -102 48 c-168 78 -207 95 -207
88z"/>
<path d="M2578 769 c16 -6 22 -15 18 -26 -2 -10 -23 -88 -46 -173 -59 -224
-59 -222 -81 -215 -10 4 -19 3 -19 -2 0 -8 301 -94 326 -93 11 0 60 128 51
136 -2 3 -22 -12 -43 -32 -48 -46 -89 -63 -132 -57 -41 7 -42 -6 25 244 l48
175 29 -7 c27 -7 46 -5 35 4 -9 8 -200 57 -216 56 -14 0 -12 -3 5 -10z"/>
<path d="M4385 775 c-5 -1 -63 -17 -127 -35 -111 -31 -146 -48 -96 -46 19 1
27 -18 81 -197 56 -190 58 -199 40 -213 -17 -14 -17 -15 2 -10 59 14 225 69
221 73 -2 2 -20 0 -40 -5 -20 -6 -38 -7 -40 -4 -7 13 -47 154 -44 156 2 1 23
11 48 21 110 47 143 108 106 196 -22 52 -93 82 -151 64z m-13 -37 c21 -17 58
-120 58 -163 0 -26 -6 -39 -25 -51 -14 -9 -28 -15 -30 -12 -11 11 -66 212 -61
224 7 17 37 18 58 2z"/>
<path d="M3196 648 c-99 -22 -156 -110 -157 -245 -2 -140 75 -215 221 -216 72
0 109 14 152 60 77 81 78 287 2 355 -47 41 -146 62 -218 46z m130 -35 c18 -24
20 -79 8 -225 -12 -148 -42 -201 -107 -184 -46 11 -60 45 -58 145 1 49 3 97 5
108 2 10 7 44 11 77 9 77 40 111 92 103 19 -4 41 -14 49 -24z"/>
<path d="M3800 657 c-5 -5 -105 -16 -147 -17 -13 0 -23 -5 -23 -11 0 -6 9 -8
20 -4 16 5 20 2 21 -19 1 -14 2 -29 3 -33 1 -5 6 -42 10 -83 5 -41 10 -82 11
-90 1 -8 6 -49 10 -90 4 -41 9 -83 11 -93 1 -9 -3 -17 -11 -17 -8 0 -17 -5
-21 -11 -4 -7 0 -9 12 -6 11 3 54 9 96 12 86 7 130 14 137 21 3 3 -13 4 -37 3
-23 -2 -44 -1 -46 2 -3 2 -8 40 -11 84 l-7 81 62 12 c105 22 153 88 129 178
-16 56 -49 77 -136 82 -43 2 -80 2 -83 -1z m51 -17 c36 0 56 -185 23 -221 -26
-29 -54 -25 -55 9 0 15 -2 34 -3 42 -9 45 -16 162 -10 171 3 6 13 8 21 5 8 -3
19 -6 24 -6z"/>
</g>
</svg>
